%TF.GenerationSoftware,KiCad,Pcbnew,(6.0.8)*%
%TF.CreationDate,2022-11-07T14:56:58+08:00*%
%TF.ProjectId,remote-rpi,72656d6f-7465-42d7-9270-692e6b696361,rev?*%
%TF.SameCoordinates,Original*%
%TF.FileFunction,Legend,Bot*%
%TF.FilePolarity,Positive*%
%FSLAX46Y46*%
G04 Gerber Fmt 4.6, Leading zero omitted, Abs format (unit mm)*
G04 Created by KiCad (PCBNEW (6.0.8)) date 2022-11-07 14:56:58*
%MOMM*%
%LPD*%
G01*
G04 APERTURE LIST*
%ADD10C,0.150000*%
%ADD11C,0.700000*%
%ADD12C,0.120000*%
G04 APERTURE END LIST*
D10*
X10300642Y-3133380D02*
X9681595Y-3133380D01*
X10014928Y-3514333D01*
X9872071Y-3514333D01*
X9776833Y-3561952D01*
X9729214Y-3609571D01*
X9681595Y-3704809D01*
X9681595Y-3942904D01*
X9729214Y-4038142D01*
X9776833Y-4085761D01*
X9872071Y-4133380D01*
X10157785Y-4133380D01*
X10253023Y-4085761D01*
X10300642Y-4038142D01*
X9253023Y-4038142D02*
X9205404Y-4085761D01*
X9253023Y-4133380D01*
X9300642Y-4085761D01*
X9253023Y-4038142D01*
X9253023Y-4133380D01*
X8872071Y-3133380D02*
X8253023Y-3133380D01*
X8586357Y-3514333D01*
X8443500Y-3514333D01*
X8348261Y-3561952D01*
X8300642Y-3609571D01*
X8253023Y-3704809D01*
X8253023Y-3942904D01*
X8300642Y-4038142D01*
X8348261Y-4085761D01*
X8443500Y-4133380D01*
X8729214Y-4133380D01*
X8824452Y-4085761D01*
X8872071Y-4038142D01*
X7967309Y-3133380D02*
X7633976Y-4133380D01*
X7300642Y-3133380D01*
X10205404Y-5743380D02*
X10205404Y-4743380D01*
X9872071Y-5457666D01*
X9538738Y-4743380D01*
X9538738Y-5743380D01*
X8872071Y-4743380D02*
X8681595Y-4743380D01*
X8586357Y-4791000D01*
X8491119Y-4886238D01*
X8443500Y-5076714D01*
X8443500Y-5410047D01*
X8491119Y-5600523D01*
X8586357Y-5695761D01*
X8681595Y-5743380D01*
X8872071Y-5743380D01*
X8967309Y-5695761D01*
X9062547Y-5600523D01*
X9110166Y-5410047D01*
X9110166Y-5076714D01*
X9062547Y-4886238D01*
X8967309Y-4791000D01*
X8872071Y-4743380D01*
X8062547Y-5695761D02*
X7919690Y-5743380D01*
X7681595Y-5743380D01*
X7586357Y-5695761D01*
X7538738Y-5648142D01*
X7491119Y-5552904D01*
X7491119Y-5457666D01*
X7538738Y-5362428D01*
X7586357Y-5314809D01*
X7681595Y-5267190D01*
X7872071Y-5219571D01*
X7967309Y-5171952D01*
X8014928Y-5124333D01*
X8062547Y-5029095D01*
X8062547Y-4933857D01*
X8014928Y-4838619D01*
X7967309Y-4791000D01*
X7872071Y-4743380D01*
X7633976Y-4743380D01*
X7491119Y-4791000D01*
X7062547Y-5743380D02*
X7062547Y-4743380D01*
X10205404Y-7353380D02*
X10205404Y-6353380D01*
X9872071Y-7067666D01*
X9538738Y-6353380D01*
X9538738Y-7353380D01*
X9062547Y-7353380D02*
X9062547Y-6353380D01*
X8633976Y-7305761D02*
X8491119Y-7353380D01*
X8253023Y-7353380D01*
X8157785Y-7305761D01*
X8110166Y-7258142D01*
X8062547Y-7162904D01*
X8062547Y-7067666D01*
X8110166Y-6972428D01*
X8157785Y-6924809D01*
X8253023Y-6877190D01*
X8443500Y-6829571D01*
X8538738Y-6781952D01*
X8586357Y-6734333D01*
X8633976Y-6639095D01*
X8633976Y-6543857D01*
X8586357Y-6448619D01*
X8538738Y-6401000D01*
X8443500Y-6353380D01*
X8205404Y-6353380D01*
X8062547Y-6401000D01*
X7443500Y-6353380D02*
X7253023Y-6353380D01*
X7157785Y-6401000D01*
X7062547Y-6496238D01*
X7014928Y-6686714D01*
X7014928Y-7020047D01*
X7062547Y-7210523D01*
X7157785Y-7305761D01*
X7253023Y-7353380D01*
X7443500Y-7353380D01*
X7538738Y-7305761D01*
X7633976Y-7210523D01*
X7681595Y-7020047D01*
X7681595Y-6686714D01*
X7633976Y-6496238D01*
X7538738Y-6401000D01*
X7443500Y-6353380D01*
X10253023Y-8915761D02*
X10110166Y-8963380D01*
X9872071Y-8963380D01*
X9776833Y-8915761D01*
X9729214Y-8868142D01*
X9681595Y-8772904D01*
X9681595Y-8677666D01*
X9729214Y-8582428D01*
X9776833Y-8534809D01*
X9872071Y-8487190D01*
X10062547Y-8439571D01*
X10157785Y-8391952D01*
X10205404Y-8344333D01*
X10253023Y-8249095D01*
X10253023Y-8153857D01*
X10205404Y-8058619D01*
X10157785Y-8011000D01*
X10062547Y-7963380D01*
X9824452Y-7963380D01*
X9681595Y-8011000D01*
X8681595Y-8868142D02*
X8729214Y-8915761D01*
X8872071Y-8963380D01*
X8967309Y-8963380D01*
X9110166Y-8915761D01*
X9205404Y-8820523D01*
X9253023Y-8725285D01*
X9300642Y-8534809D01*
X9300642Y-8391952D01*
X9253023Y-8201476D01*
X9205404Y-8106238D01*
X9110166Y-8011000D01*
X8967309Y-7963380D01*
X8872071Y-7963380D01*
X8729214Y-8011000D01*
X8681595Y-8058619D01*
X8253023Y-8963380D02*
X8253023Y-7963380D01*
X7681595Y-8963380D02*
X8110166Y-8391952D01*
X7681595Y-7963380D02*
X8253023Y-8534809D01*
X12749738Y-4038142D02*
X12797357Y-4085761D01*
X12940214Y-4133380D01*
X13035452Y-4133380D01*
X13178309Y-4085761D01*
X13273547Y-3990523D01*
X13321166Y-3895285D01*
X13368785Y-3704809D01*
X13368785Y-3561952D01*
X13321166Y-3371476D01*
X13273547Y-3276238D01*
X13178309Y-3181000D01*
X13035452Y-3133380D01*
X12940214Y-3133380D01*
X12797357Y-3181000D01*
X12749738Y-3228619D01*
X12321166Y-3609571D02*
X11987833Y-3609571D01*
X11844976Y-4133380D02*
X12321166Y-4133380D01*
X12321166Y-3133380D01*
X11844976Y-3133380D01*
X13940214Y-4791000D02*
X14035452Y-4743380D01*
X14178309Y-4743380D01*
X14321166Y-4791000D01*
X14416404Y-4886238D01*
X14464023Y-4981476D01*
X14511642Y-5171952D01*
X14511642Y-5314809D01*
X14464023Y-5505285D01*
X14416404Y-5600523D01*
X14321166Y-5695761D01*
X14178309Y-5743380D01*
X14083071Y-5743380D01*
X13940214Y-5695761D01*
X13892595Y-5648142D01*
X13892595Y-5314809D01*
X14083071Y-5314809D01*
X13464023Y-5743380D02*
X13464023Y-4743380D01*
X12892595Y-5743380D01*
X12892595Y-4743380D01*
X12416404Y-5743380D02*
X12416404Y-4743380D01*
X12178309Y-4743380D01*
X12035452Y-4791000D01*
X11940214Y-4886238D01*
X11892595Y-4981476D01*
X11844976Y-5171952D01*
X11844976Y-5314809D01*
X11892595Y-5505285D01*
X11940214Y-5600523D01*
X12035452Y-5695761D01*
X12178309Y-5743380D01*
X12416404Y-5743380D01*
X13940214Y-7353380D02*
X13940214Y-6353380D01*
X12892595Y-7353380D02*
X13225928Y-6877190D01*
X13464023Y-7353380D02*
X13464023Y-6353380D01*
X13083071Y-6353380D01*
X12987833Y-6401000D01*
X12940214Y-6448619D01*
X12892595Y-6543857D01*
X12892595Y-6686714D01*
X12940214Y-6781952D01*
X12987833Y-6829571D01*
X13083071Y-6877190D01*
X13464023Y-6877190D01*
X11797357Y-7448619D02*
X11892595Y-7401000D01*
X11987833Y-7305761D01*
X12130690Y-7162904D01*
X12225928Y-7115285D01*
X12321166Y-7115285D01*
X12273547Y-7353380D02*
X12368785Y-7305761D01*
X12464023Y-7210523D01*
X12511642Y-7020047D01*
X12511642Y-6686714D01*
X12464023Y-6496238D01*
X12368785Y-6401000D01*
X12273547Y-6353380D01*
X12083071Y-6353380D01*
X11987833Y-6401000D01*
X11892595Y-6496238D01*
X11844976Y-6686714D01*
X11844976Y-7020047D01*
X11892595Y-7210523D01*
X11987833Y-7305761D01*
X12083071Y-7353380D01*
X12273547Y-7353380D01*
X13844976Y-8868142D02*
X13892595Y-8915761D01*
X14035452Y-8963380D01*
X14130690Y-8963380D01*
X14273547Y-8915761D01*
X14368785Y-8820523D01*
X14416404Y-8725285D01*
X14464023Y-8534809D01*
X14464023Y-8391952D01*
X14416404Y-8201476D01*
X14368785Y-8106238D01*
X14273547Y-8011000D01*
X14130690Y-7963380D01*
X14035452Y-7963380D01*
X13892595Y-8011000D01*
X13844976Y-8058619D01*
X13464023Y-8915761D02*
X13321166Y-8963380D01*
X13083071Y-8963380D01*
X12987833Y-8915761D01*
X12940214Y-8868142D01*
X12892595Y-8772904D01*
X12892595Y-8677666D01*
X12940214Y-8582428D01*
X12987833Y-8534809D01*
X13083071Y-8487190D01*
X13273547Y-8439571D01*
X13368785Y-8391952D01*
X13416404Y-8344333D01*
X13464023Y-8249095D01*
X13464023Y-8153857D01*
X13416404Y-8058619D01*
X13368785Y-8011000D01*
X13273547Y-7963380D01*
X13035452Y-7963380D01*
X12892595Y-8011000D01*
X12464023Y-8963380D02*
X12464023Y-7963380D01*
X11892595Y-8963380D01*
X11892595Y-7963380D01*
%TO.C,U1*%
X9841904Y-10216380D02*
X9841904Y-11025904D01*
X9794285Y-11121142D01*
X9746666Y-11168761D01*
X9651428Y-11216380D01*
X9460952Y-11216380D01*
X9365714Y-11168761D01*
X9318095Y-11121142D01*
X9270476Y-11025904D01*
X9270476Y-10216380D01*
X8270476Y-11216380D02*
X8841904Y-11216380D01*
X8556190Y-11216380D02*
X8556190Y-10216380D01*
X8651428Y-10359238D01*
X8746666Y-10454476D01*
X8841904Y-10502095D01*
D11*
X554000Y-4490000D02*
X5380000Y-4490000D01*
X554000Y-5760000D02*
X554000Y-7030000D01*
X5380000Y-3220000D02*
X554000Y-3220000D01*
X554000Y-7030000D02*
X5380000Y-7030000D01*
X554000Y-3220000D02*
X554000Y-4490000D01*
X5380000Y-7030000D02*
X5380000Y-8300000D01*
X554000Y-680000D02*
X554000Y-1950000D01*
D12*
X18080000Y-12096000D02*
X18080000Y-11496000D01*
X80000Y-96000D02*
X18080000Y-96000D01*
D11*
X7920000Y-680000D02*
X554000Y-680000D01*
D12*
X18080000Y-746000D02*
X18080000Y-96000D01*
D11*
X554000Y-1950000D02*
X5380000Y-1950000D01*
X554000Y-8300000D02*
X554000Y-11602000D01*
X5380000Y-4490000D02*
X5380000Y-5760000D01*
D12*
X80000Y-96000D02*
X80000Y-12096000D01*
D11*
X5380000Y-5760000D02*
X554000Y-5760000D01*
X5380000Y-8300000D02*
X554000Y-8300000D01*
X5380000Y-1950000D02*
X5380000Y-3220000D01*
D12*
X80000Y-12096000D02*
X18080000Y-12096000D01*
%TO.C,J1*%
X24932000Y-960000D02*
X22332000Y-960000D01*
X22332000Y-3560000D02*
X19732000Y-3560000D01*
X24932000Y-11240000D02*
X19732000Y-11240000D01*
X19732000Y-3560000D02*
X19732000Y-11240000D01*
X22332000Y-960000D02*
X22332000Y-3560000D01*
X21062000Y-960000D02*
X19732000Y-960000D01*
X19732000Y-960000D02*
X19732000Y-2290000D01*
X24932000Y-960000D02*
X24932000Y-11240000D01*
%TD*%
M02*
